<svg width="22" height="14" viewBox="0 0 22 14" fill="none" xmlns="http://www.w3.org/2000/svg">
<path d="M13 5.1625V3.675C13.55 3.47083 14.1125 3.31771 14.6875 3.21563C15.2625 3.11354 15.8667 3.0625 16.5 3.0625C16.9333 3.0625 17.3583 3.09167 17.775 3.15C18.1917 3.20833 18.6 3.28125 19 3.36875V4.76875C18.6 4.6375 18.1958 4.53906 17.7875 4.47344C17.3792 4.40781 16.95 4.375 16.5 4.375C15.8667 4.375 15.2583 4.44427 14.675 4.58281C14.0917 4.72135 13.5333 4.91458 13 5.1625ZM13 9.975V8.4875C13.55 8.28333 14.1125 8.13021 14.6875 8.02812C15.2625 7.92604 15.8667 7.875 16.5 7.875C16.9333 7.875 17.3583 7.90417 17.775 7.9625C18.1917 8.02083 18.6 8.09375 19 8.18125V9.58125C18.6 9.45 18.1958 9.35156 17.7875 9.28594C17.3792 9.22031 16.95 9.1875 16.5 9.1875C15.8667 9.1875 15.2583 9.25313 14.675 9.38437C14.0917 9.51562 13.5333 9.7125 13 9.975ZM13 7.56875V6.08125C13.55 5.87708 14.1125 5.72396 14.6875 5.62187C15.2625 5.51979 15.8667 5.46875 16.5 5.46875C16.9333 5.46875 17.3583 5.49792 17.775 5.55625C18.1917 5.61458 18.6 5.6875 19 5.775V7.175C18.6 7.04375 18.1958 6.94531 17.7875 6.87969C17.3792 6.81406 16.95 6.78125 16.5 6.78125C15.8667 6.78125 15.2583 6.85052 14.675 6.98906C14.0917 7.1276 13.5333 7.32083 13 7.56875ZM5.5 10.5C6.28333 10.5 7.04583 10.5766 7.7875 10.7297C8.52917 10.8828 9.26667 11.1125 10 11.4187V2.8C9.31667 2.45 8.59167 2.1875 7.825 2.0125C7.05833 1.8375 6.28333 1.75 5.5 1.75C4.9 1.75 4.30417 1.80104 3.7125 1.90312C3.12083 2.00521 2.55 2.15833 2 2.3625V11.025C2.58333 10.85 3.1625 10.7188 3.7375 10.6312C4.3125 10.5437 4.9 10.5 5.5 10.5ZM12 11.4187C12.7333 11.1125 13.4708 10.8828 14.2125 10.7297C14.9542 10.5766 15.7167 10.5 16.5 10.5C17.1 10.5 17.6875 10.5437 18.2625 10.6312C18.8375 10.7188 19.4167 10.85 20 11.025V2.3625C19.45 2.15833 18.8792 2.00521 18.2875 1.90312C17.6958 1.80104 17.1 1.75 16.5 1.75C15.7167 1.75 14.9417 1.8375 14.175 2.0125C13.4083 2.1875 12.6833 2.45 12 2.8V11.4187ZM11 14C10.2 13.4458 9.33333 13.0156 8.4 12.7094C7.46667 12.4031 6.5 12.25 5.5 12.25C4.8 12.25 4.1125 12.3302 3.4375 12.4906C2.7625 12.651 2.11667 12.8771 1.5 13.1687C1.15 13.3292 0.8125 13.3219 0.4875 13.1469C0.1625 12.9719 0 12.7167 0 12.3812V1.8375C0 1.67708 0.0458333 1.52396 0.1375 1.37812C0.229167 1.23229 0.366667 1.12292 0.55 1.05C1.31667 0.7 2.11667 0.4375 2.95 0.2625C3.78333 0.0875 4.63333 0 5.5 0C6.46667 0 7.4125 0.109375 8.3375 0.328125C9.2625 0.546875 10.15 0.875 11 1.3125C11.85 0.875 12.7375 0.546875 13.6625 0.328125C14.5875 0.109375 15.5333 0 16.5 0C17.3667 0 18.2167 0.0875 19.05 0.2625C19.8833 0.4375 20.6833 0.7 21.45 1.05C21.6333 1.12292 21.7708 1.23229 21.8625 1.37812C21.9542 1.52396 22 1.67708 22 1.8375V12.3812C22 12.7167 21.8375 12.9719 21.5125 13.1469C21.1875 13.3219 20.85 13.3292 20.5 13.1687C19.8833 12.8771 19.2375 12.651 18.5625 12.4906C17.8875 12.3302 17.2 12.25 16.5 12.25C15.5 12.25 14.5333 12.4031 13.6 12.7094C12.6667 13.0156 11.8 13.4458 11 14Z" fill="url(#paint0_linear_16_4)"/>
<defs>
<linearGradient id="paint0_linear_16_4" x1="11" y1="0" x2="11" y2="14" gradientUnits="userSpaceOnUse">
<stop stop-color="#9F46EE"/>
<stop offset="1" stop-color="#D177F5"/>
</linearGradient>
</defs>
</svg>
