<svg width="22" height="16" viewBox="0 0 22 16" fill="none" xmlns="http://www.w3.org/2000/svg">
<path d="M10.8507 16L15.3801 6.4H17.4706L22 16H19.9095L18.8394 13.56H14.0113L12.9412 16H10.8507ZM2.98643 13.6L1.59276 12.48L6.61991 8.44C6.03922 7.97333 5.51244 7.44 5.03959 6.84C4.56674 6.24 4.13122 5.56 3.73303 4.8H5.82353C6.15535 5.32 6.48718 5.77333 6.819 6.16C7.15083 6.54667 7.54902 6.93333 8.01357 7.32C8.56109 6.88 9.12934 6.26333 9.71833 5.47C10.3073 4.67667 10.7511 3.92 11.0498 3.2H0V1.6H6.96833V0H8.95928V1.6H15.9276V3.2H13.0407C12.6923 4.16 12.1697 5.14667 11.4729 6.16C10.776 7.17333 10.0875 7.94667 9.40724 8.48L11.7964 10.44L11.0498 12.08L8.01357 9.58L2.98643 13.6ZM14.6335 12.16H18.2172L16.4253 8.08L14.6335 12.16Z" fill="url(#paint0_linear_16_5)"/>
<defs>
<linearGradient id="paint0_linear_16_5" x1="11" y1="0" x2="11" y2="16" gradientUnits="userSpaceOnUse">
<stop stop-color="#9F46EE"/>
<stop offset="1" stop-color="#D177F5"/>
</linearGradient>
</defs>
</svg>
