<svg width="312" height="36" viewBox="0 0 312 36" fill="none" xmlns="http://www.w3.org/2000/svg">
<path d="M18.664 0.919983L30.328 30.968C30.776 32.12 31.272 32.92 31.816 33.368C32.392 33.784 32.904 34.008 33.352 34.04V35C32.392 34.936 31.256 34.904 29.944 34.904C28.664 34.872 27.368 34.856 26.056 34.856C24.584 34.856 23.192 34.872 21.88 34.904C20.568 34.904 19.528 34.936 18.76 35V34.04C20.392 33.976 21.416 33.704 21.832 33.224C22.28 32.712 22.184 31.64 21.544 30.008L13.384 7.68798L14.248 6.43998L6.95203 25.448C6.24803 27.208 5.81603 28.648 5.65603 29.768C5.52803 30.888 5.60803 31.752 5.89603 32.36C6.21603 32.968 6.71203 33.4 7.38403 33.656C8.08803 33.88 8.92003 34.008 9.88003 34.04V35C8.82403 34.936 7.81603 34.904 6.85603 34.904C5.89603 34.872 4.92003 34.856 3.92803 34.856C3.22403 34.856 2.55203 34.872 1.91203 34.904C1.30403 34.904 0.760029 34.936 0.280029 35V34.04C0.952029 33.912 1.64003 33.48 2.34403 32.744C3.04803 32.008 3.73603 30.76 4.40803 29L15.352 0.919983C15.864 0.951982 16.408 0.967982 16.984 0.967982C17.592 0.967982 18.152 0.951982 18.664 0.919983ZM22.024 21.176V22.136H7.72003L8.20003 21.176H22.024Z" fill="#141414"/>
<path d="M52.0237 9.51198C53.3677 9.51198 54.4557 9.68798 55.2877 10.04C56.1517 10.36 56.8237 10.808 57.3037 11.384C57.8157 11.992 58.1837 12.776 58.4077 13.736C58.6637 14.696 58.7917 15.992 58.7917 17.624V30.536C58.7917 31.88 59.0157 32.792 59.4637 33.272C59.9437 33.752 60.7437 33.992 61.8637 33.992V35C61.2557 34.968 60.3437 34.936 59.1277 34.904C57.9117 34.84 56.7117 34.808 55.5277 34.808C54.3117 34.808 53.1117 34.84 51.9277 34.904C50.7757 34.936 49.8957 34.968 49.2877 35V33.992C50.2477 33.992 50.9197 33.752 51.3037 33.272C51.6877 32.792 51.8797 31.88 51.8797 30.536V15.608C51.8797 14.808 51.7997 14.12 51.6397 13.544C51.4797 12.936 51.1917 12.472 50.7757 12.152C50.3597 11.8 49.7357 11.624 48.9037 11.624C48.0397 11.624 47.2397 11.864 46.5037 12.344C45.7997 12.824 45.2237 13.496 44.7757 14.36C44.3597 15.192 44.1517 16.136 44.1517 17.192V30.536C44.1517 31.88 44.3437 32.792 44.7277 33.272C45.1437 33.752 45.8157 33.992 46.7437 33.992V35C46.1677 34.968 45.3197 34.936 44.1997 34.904C43.1117 34.84 41.9757 34.808 40.7917 34.808C39.5757 34.808 38.3277 34.84 37.0477 34.904C35.7677 34.936 34.8077 34.968 34.1677 35V33.992C35.2877 33.992 36.0717 33.752 36.5197 33.272C36.9997 32.792 37.2397 31.88 37.2397 30.536V15.416C37.2397 13.976 37.0157 12.92 36.5677 12.248C36.1517 11.544 35.3517 11.192 34.1677 11.192V10.184C35.1917 10.28 36.1837 10.328 37.1437 10.328C38.4877 10.328 39.7357 10.28 40.8877 10.184C42.0717 10.056 43.1597 9.87998 44.1517 9.65598V13.976C44.9517 12.344 46.0397 11.192 47.4157 10.52C48.7917 9.84798 50.3277 9.51198 52.0237 9.51198Z" fill="#141414"/>
<path d="M81.508 9.51198C82.852 9.51198 83.94 9.68798 84.772 10.04C85.636 10.36 86.308 10.808 86.788 11.384C87.3 11.992 87.668 12.776 87.892 13.736C88.148 14.696 88.276 15.992 88.276 17.624V30.536C88.276 31.88 88.5 32.792 88.948 33.272C89.428 33.752 90.228 33.992 91.348 33.992V35C90.74 34.968 89.828 34.936 88.612 34.904C87.396 34.84 86.196 34.808 85.012 34.808C83.796 34.808 82.596 34.84 81.412 34.904C80.26 34.936 79.38 34.968 78.772 35V33.992C79.732 33.992 80.404 33.752 80.788 33.272C81.172 32.792 81.364 31.88 81.364 30.536V15.608C81.364 14.808 81.284 14.12 81.124 13.544C80.964 12.936 80.676 12.472 80.26 12.152C79.844 11.8 79.22 11.624 78.388 11.624C77.524 11.624 76.724 11.864 75.988 12.344C75.284 12.824 74.708 13.496 74.26 14.36C73.844 15.192 73.636 16.136 73.636 17.192V30.536C73.636 31.88 73.828 32.792 74.212 33.272C74.628 33.752 75.3 33.992 76.228 33.992V35C75.652 34.968 74.804 34.936 73.684 34.904C72.596 34.84 71.46 34.808 70.276 34.808C69.06 34.808 67.812 34.84 66.532 34.904C65.252 34.936 64.292 34.968 63.652 35V33.992C64.772 33.992 65.556 33.752 66.004 33.272C66.484 32.792 66.724 31.88 66.724 30.536V15.416C66.724 13.976 66.5 12.92 66.052 12.248C65.636 11.544 64.836 11.192 63.652 11.192V10.184C64.676 10.28 65.668 10.328 66.628 10.328C67.972 10.328 69.22 10.28 70.372 10.184C71.556 10.056 72.644 9.87998 73.636 9.65598V13.976C74.436 12.344 75.524 11.192 76.9 10.52C78.276 9.84798 79.812 9.51198 81.508 9.51198Z" fill="#141414"/>
<path d="M105.52 9.51198C108.336 9.51198 110.544 10.344 112.144 12.008C113.744 13.672 114.544 16.392 114.544 20.168H98.7524L98.6564 19.256H108.496C108.528 17.688 108.432 16.248 108.208 14.936C107.984 13.592 107.632 12.52 107.152 11.72C106.672 10.92 106.032 10.52 105.232 10.52C104.112 10.52 103.152 11.224 102.352 12.632C101.584 14.04 101.12 16.376 100.96 19.64L101.104 19.928C101.072 20.312 101.04 20.712 101.008 21.128C101.008 21.544 101.008 21.976 101.008 22.424C101.008 24.632 101.312 26.424 101.92 27.8C102.56 29.176 103.36 30.184 104.32 30.824C105.28 31.432 106.256 31.736 107.248 31.736C107.92 31.736 108.608 31.64 109.312 31.448C110.048 31.224 110.784 30.84 111.52 30.296C112.256 29.72 112.944 28.92 113.584 27.896L114.448 28.184C114.064 29.4 113.456 30.584 112.624 31.736C111.792 32.888 110.736 33.832 109.456 34.568C108.176 35.304 106.64 35.672 104.848 35.672C102.672 35.672 100.752 35.208 99.0884 34.28C97.4244 33.352 96.1124 31.944 95.1524 30.056C94.2244 28.168 93.7604 25.768 93.7604 22.856C93.7604 19.88 94.2564 17.4 95.2484 15.416C96.2724 13.432 97.6644 11.96 99.4244 11C101.216 10.008 103.248 9.51198 105.52 9.51198Z" fill="#141414"/>
<path d="M154.687 1.01598C154.559 2.42398 154.463 3.78398 154.399 5.09598C154.367 6.40798 154.351 7.41598 154.351 8.11998C154.351 8.75998 154.367 9.36798 154.399 9.94398C154.431 10.52 154.463 11 154.495 11.384H153.391C153.071 9.04798 152.575 7.20798 151.903 5.86398C151.231 4.48798 150.351 3.52798 149.263 2.98398C148.207 2.40798 146.959 2.11998 145.519 2.11998H143.551C142.623 2.11998 141.919 2.19998 141.439 2.35998C140.959 2.51998 140.639 2.83998 140.479 3.31998C140.319 3.79998 140.239 4.53598 140.239 5.52798V30.488C140.239 31.48 140.319 32.216 140.479 32.696C140.639 33.176 140.959 33.496 141.439 33.656C141.919 33.816 142.623 33.896 143.551 33.896H145.903C147.343 33.896 148.607 33.592 149.695 32.984C150.815 32.344 151.759 31.272 152.527 29.768C153.327 28.264 153.935 26.232 154.351 23.672H155.455C155.359 24.696 155.311 26.04 155.311 27.704C155.311 28.44 155.327 29.48 155.359 30.824C155.391 32.168 155.487 33.56 155.647 35C154.015 34.936 152.175 34.904 150.127 34.904C148.079 34.872 146.255 34.856 144.655 34.856C143.855 34.856 142.831 34.856 141.583 34.856C140.335 34.856 138.991 34.872 137.551 34.904C136.111 34.904 134.655 34.92 133.183 34.952C131.711 34.952 130.319 34.968 129.007 35V34.04C130.031 33.976 130.799 33.848 131.311 33.656C131.823 33.464 132.159 33.08 132.319 32.504C132.511 31.928 132.607 31.064 132.607 29.912V6.10398C132.607 4.91998 132.511 4.05598 132.319 3.51198C132.159 2.93598 131.807 2.55198 131.263 2.35998C130.751 2.13598 129.999 2.00798 129.007 1.97598V1.01598C130.319 1.04798 131.711 1.07998 133.183 1.11198C134.655 1.11198 136.111 1.12798 137.551 1.15998C138.991 1.15998 140.335 1.15998 141.583 1.15998C142.831 1.15998 143.855 1.15998 144.655 1.15998C146.127 1.15998 147.791 1.15998 149.647 1.15998C151.535 1.12798 153.215 1.07998 154.687 1.01598ZM147.199 17.432C147.199 17.432 147.199 17.592 147.199 17.912C147.199 18.232 147.199 18.392 147.199 18.392H138.799C138.799 18.392 138.799 18.232 138.799 17.912C138.799 17.592 138.799 17.432 138.799 17.432H147.199ZM148.591 11.096C148.463 12.92 148.399 14.312 148.399 15.272C148.431 16.232 148.447 17.112 148.447 17.912C148.447 18.712 148.463 19.592 148.495 20.552C148.527 21.512 148.607 22.904 148.735 24.728H147.631C147.471 23.608 147.167 22.568 146.719 21.608C146.303 20.648 145.695 19.88 144.895 19.304C144.095 18.696 143.055 18.392 141.775 18.392V17.432C142.735 17.432 143.551 17.24 144.223 16.856C144.895 16.44 145.439 15.912 145.855 15.272C146.303 14.6 146.655 13.896 146.911 13.16C147.167 12.424 147.359 11.736 147.487 11.096H148.591Z" fill="#141414"/>
<path d="M168.453 9.51198C169.797 9.51198 170.965 9.68798 171.957 10.04C172.981 10.36 173.717 10.68 174.165 11C175.253 11.736 175.925 11.256 176.181 9.55998H177.189C177.125 10.456 177.077 11.56 177.045 12.872C177.013 14.152 176.997 15.864 176.997 18.008H175.989C175.829 16.824 175.525 15.656 175.077 14.504C174.629 13.352 173.973 12.408 173.109 11.672C172.277 10.936 171.189 10.568 169.845 10.568C168.917 10.568 168.133 10.84 167.493 11.384C166.853 11.896 166.533 12.648 166.533 13.64C166.533 14.6 166.821 15.448 167.397 16.184C167.973 16.888 168.709 17.576 169.605 18.248C170.533 18.888 171.493 19.576 172.485 20.312C173.541 21.112 174.501 21.912 175.365 22.712C176.229 23.48 176.917 24.328 177.429 25.256C177.941 26.184 178.197 27.288 178.197 28.568C178.197 30.008 177.781 31.272 176.949 32.36C176.117 33.416 175.013 34.232 173.637 34.808C172.293 35.384 170.789 35.672 169.125 35.672C168.165 35.672 167.301 35.576 166.533 35.384C165.797 35.192 165.157 34.952 164.613 34.664C164.197 34.472 163.797 34.296 163.413 34.136C163.061 33.944 162.725 33.784 162.405 33.656C162.085 33.56 161.797 33.672 161.541 33.992C161.317 34.312 161.141 34.76 161.013 35.336H160.005C160.069 34.312 160.117 33.064 160.149 31.592C160.181 30.12 160.197 28.168 160.197 25.736H161.205C161.397 27.464 161.749 29 162.261 30.344C162.773 31.656 163.461 32.696 164.325 33.464C165.221 34.2 166.341 34.568 167.685 34.568C168.229 34.568 168.757 34.456 169.269 34.232C169.781 34.008 170.197 33.64 170.517 33.128C170.869 32.616 171.045 31.96 171.045 31.16C171.045 29.752 170.581 28.584 169.653 27.656C168.757 26.728 167.605 25.72 166.197 24.632C165.173 23.8 164.197 22.984 163.269 22.184C162.373 21.352 161.637 20.456 161.061 19.496C160.485 18.504 160.197 17.384 160.197 16.136C160.197 14.696 160.581 13.48 161.349 12.488C162.117 11.496 163.125 10.76 164.373 10.28C165.653 9.76798 167.013 9.51198 168.453 9.51198Z" fill="#141414"/>
<path d="M190.865 2.31198V10.184H196.529V11.144H190.865V30.536C190.865 31.496 191.041 32.184 191.393 32.6C191.745 32.984 192.273 33.176 192.977 33.176C193.553 33.176 194.129 32.968 194.705 32.552C195.281 32.104 195.793 31.352 196.241 30.296L197.057 30.728C196.545 32.168 195.761 33.352 194.705 34.28C193.681 35.208 192.273 35.672 190.481 35.672C189.425 35.672 188.497 35.528 187.697 35.24C186.897 34.984 186.225 34.584 185.681 34.04C184.977 33.336 184.513 32.472 184.289 31.448C184.065 30.392 183.953 29.032 183.953 27.368V11.144H179.921V10.184H183.953V3.84798C185.297 3.84798 186.529 3.73598 187.649 3.51198C188.801 3.25598 189.873 2.85598 190.865 2.31198Z" fill="#141414"/>
<path d="M210.192 9.51198C213.008 9.51198 215.216 10.344 216.816 12.008C218.416 13.672 219.216 16.392 219.216 20.168H203.424L203.328 19.256H213.168C213.2 17.688 213.104 16.248 212.88 14.936C212.656 13.592 212.304 12.52 211.824 11.72C211.344 10.92 210.704 10.52 209.904 10.52C208.784 10.52 207.824 11.224 207.024 12.632C206.256 14.04 205.792 16.376 205.632 19.64L205.776 19.928C205.744 20.312 205.712 20.712 205.68 21.128C205.68 21.544 205.68 21.976 205.68 22.424C205.68 24.632 205.984 26.424 206.592 27.8C207.232 29.176 208.032 30.184 208.992 30.824C209.952 31.432 210.928 31.736 211.92 31.736C212.592 31.736 213.28 31.64 213.984 31.448C214.72 31.224 215.456 30.84 216.192 30.296C216.928 29.72 217.616 28.92 218.256 27.896L219.12 28.184C218.736 29.4 218.128 30.584 217.296 31.736C216.464 32.888 215.408 33.832 214.128 34.568C212.848 35.304 211.312 35.672 209.52 35.672C207.344 35.672 205.424 35.208 203.76 34.28C202.096 33.352 200.784 31.944 199.824 30.056C198.896 28.168 198.432 25.768 198.432 22.856C198.432 19.88 198.928 17.4 199.92 15.416C200.944 13.432 202.336 11.96 204.096 11C205.888 10.008 207.92 9.51198 210.192 9.51198Z" fill="#141414"/>
<path d="M244.711 10.184V11.144C244.103 11.304 243.527 11.688 242.983 12.296C242.439 12.872 241.911 13.864 241.399 15.272L234.391 35.096C233.879 35.064 233.351 35.048 232.807 35.048C232.295 35.048 231.783 35.064 231.271 35.096L222.727 13.88C222.215 12.632 221.703 11.88 221.191 11.624C220.711 11.336 220.295 11.192 219.943 11.192V10.184C220.967 10.248 222.023 10.312 223.111 10.376C224.231 10.408 225.447 10.424 226.759 10.424C227.751 10.424 228.791 10.408 229.879 10.376C230.999 10.312 232.039 10.248 232.999 10.184V11.192C232.327 11.192 231.719 11.224 231.175 11.288C230.663 11.352 230.311 11.56 230.119 11.912C229.927 12.264 229.959 12.888 230.215 13.784L235.831 28.664L235.351 29.336L239.143 18.824C239.751 17.096 240.007 15.688 239.911 14.6C239.815 13.48 239.463 12.648 238.855 12.104C238.247 11.528 237.431 11.208 236.407 11.144V10.184C236.887 10.216 237.399 10.248 237.943 10.28C238.519 10.28 239.063 10.296 239.575 10.328C240.119 10.328 240.599 10.328 241.015 10.328C241.655 10.328 242.327 10.312 243.031 10.28C243.735 10.248 244.295 10.216 244.711 10.184Z" fill="#141414"/>
<path d="M251.964 35.336C250.524 35.336 249.324 35.064 248.364 34.52C247.404 33.976 246.7 33.256 246.252 32.36C245.804 31.432 245.58 30.424 245.58 29.336C245.58 27.96 245.884 26.84 246.492 25.976C247.132 25.112 247.948 24.408 248.94 23.864C249.932 23.32 250.972 22.872 252.06 22.52C253.18 22.168 254.236 21.832 255.228 21.512C256.252 21.16 257.068 20.76 257.676 20.312C258.316 19.832 258.636 19.224 258.636 18.488V14.744C258.636 13.912 258.492 13.176 258.204 12.536C257.948 11.864 257.532 11.352 256.956 11C256.412 10.648 255.692 10.472 254.796 10.472C254.156 10.472 253.516 10.568 252.876 10.76C252.236 10.92 251.708 11.208 251.292 11.624C252.188 11.944 252.876 12.44 253.356 13.112C253.868 13.752 254.124 14.488 254.124 15.32C254.124 16.408 253.74 17.272 252.972 17.912C252.236 18.552 251.356 18.872 250.332 18.872C249.18 18.872 248.3 18.52 247.692 17.816C247.116 17.08 246.828 16.2 246.828 15.176C246.828 14.248 247.052 13.48 247.5 12.872C247.98 12.264 248.636 11.688 249.468 11.144C250.364 10.632 251.436 10.232 252.684 9.94398C253.964 9.65598 255.34 9.51198 256.812 9.51198C258.284 9.51198 259.612 9.67198 260.796 9.99198C261.98 10.28 262.972 10.824 263.772 11.624C264.508 12.36 264.988 13.272 265.212 14.36C265.436 15.416 265.548 16.76 265.548 18.392V31.448C265.548 32.248 265.628 32.808 265.788 33.128C265.948 33.416 266.22 33.56 266.604 33.56C266.892 33.56 267.164 33.48 267.42 33.32C267.708 33.16 268.012 32.968 268.332 32.744L268.812 33.56C268.14 34.136 267.356 34.584 266.46 34.904C265.596 35.192 264.62 35.336 263.532 35.336C262.348 35.336 261.404 35.176 260.7 34.856C259.996 34.504 259.484 34.04 259.164 33.464C258.876 32.888 258.732 32.216 258.732 31.448C257.964 32.664 257.036 33.624 255.948 34.328C254.86 35 253.532 35.336 251.964 35.336ZM255.372 32.264C256.012 32.264 256.588 32.12 257.1 31.832C257.644 31.512 258.156 31 258.636 30.296V20.456C258.348 20.936 257.948 21.368 257.436 21.752C256.924 22.136 256.38 22.536 255.804 22.952C255.228 23.336 254.668 23.768 254.124 24.248C253.612 24.728 253.196 25.32 252.876 26.024C252.556 26.728 252.396 27.576 252.396 28.568C252.396 29.816 252.668 30.744 253.212 31.352C253.756 31.96 254.476 32.264 255.372 32.264Z" fill="#141414"/>
<path d="M287.607 9.51198C288.951 9.51198 290.039 9.68798 290.871 10.04C291.703 10.36 292.375 10.808 292.887 11.384C293.399 11.992 293.767 12.792 293.991 13.784C294.215 14.744 294.327 16.024 294.327 17.624V30.536C294.327 31.88 294.535 32.792 294.951 33.272C295.367 33.752 296.087 33.992 297.111 33.992V35C296.535 34.968 295.655 34.936 294.471 34.904C293.319 34.84 292.183 34.808 291.063 34.808C289.911 34.808 288.775 34.84 287.655 34.904C286.535 34.936 285.687 34.968 285.111 35V33.992C285.975 33.992 286.567 33.752 286.887 33.272C287.239 32.792 287.415 31.88 287.415 30.536V15.608C287.415 14.808 287.351 14.12 287.223 13.544C287.095 12.936 286.839 12.472 286.455 12.152C286.103 11.8 285.559 11.624 284.823 11.624C283.991 11.624 283.223 11.864 282.519 12.344C281.815 12.824 281.239 13.496 280.791 14.36C280.375 15.192 280.167 16.136 280.167 17.192V30.536C280.167 31.88 280.343 32.792 280.695 33.272C281.047 33.752 281.639 33.992 282.471 33.992V35C281.959 34.968 281.159 34.936 280.071 34.904C279.015 34.84 277.927 34.808 276.807 34.808C275.591 34.808 274.343 34.84 273.063 34.904C271.783 34.936 270.823 34.968 270.183 35V33.992C271.303 33.992 272.087 33.752 272.535 33.272C273.015 32.792 273.255 31.88 273.255 30.536V15.416C273.255 13.976 273.031 12.92 272.583 12.248C272.167 11.544 271.367 11.192 270.183 11.192V10.184C271.207 10.28 272.199 10.328 273.159 10.328C274.503 10.328 275.751 10.28 276.903 10.184C278.087 10.056 279.175 9.87998 280.167 9.65598V13.976C280.935 12.376 281.975 11.24 283.287 10.568C284.599 9.86398 286.039 9.51198 287.607 9.51198ZM302.055 9.51198C303.399 9.51198 304.487 9.68798 305.319 10.04C306.151 10.36 306.823 10.808 307.335 11.384C307.847 11.992 308.215 12.792 308.439 13.784C308.663 14.744 308.775 16.024 308.775 17.624V30.536C308.775 31.88 308.999 32.792 309.447 33.272C309.927 33.752 310.727 33.992 311.847 33.992V35C311.239 34.968 310.327 34.936 309.111 34.904C307.895 34.84 306.695 34.808 305.511 34.808C304.359 34.808 303.223 34.84 302.103 34.904C300.983 34.936 300.135 34.968 299.559 35V33.992C300.423 33.992 301.015 33.752 301.335 33.272C301.687 32.792 301.863 31.88 301.863 30.536V15.608C301.863 14.808 301.783 14.12 301.623 13.544C301.495 12.936 301.223 12.472 300.807 12.152C300.423 11.8 299.815 11.624 298.983 11.624C298.151 11.624 297.383 11.88 296.679 12.392C295.975 12.904 295.399 13.592 294.951 14.456C294.535 15.32 294.311 16.28 294.279 17.336L294.039 14.408C294.903 12.488 296.039 11.192 297.447 10.52C298.887 9.84798 300.423 9.51198 302.055 9.51198Z" fill="#141414"/>
</svg>
